<?xml version="1.0" encoding="UTF-8" standalone="no"?>
<svg
   xmlns:dc="http://purl.org/dc/elements/1.1/"
   xmlns:cc="http://creativecommons.org/ns#"
   xmlns:rdf="http://www.w3.org/1999/02/22-rdf-syntax-ns#"
   xmlns:svg="http://www.w3.org/2000/svg"
   xmlns="http://www.w3.org/2000/svg"
   xmlns:sodipodi="http://sodipodi.sourceforge.net/DTD/sodipodi-0.dtd"
   xmlns:inkscape="http://www.inkscape.org/namespaces/inkscape"
   id="artifact-hex"
   viewBox="0 0 20 22"
   version="1.1"
   inkscape:version="0.91 r13725"
   sodipodi:docname="document-hex.svg">
  <metadata
     id="metadata3347">
    <rdf:RDF>
      <cc:Work
         rdf:about="">
        <dc:format>image/svg+xml</dc:format>
        <dc:type
           rdf:resource="http://purl.org/dc/dcmitype/StillImage" />
        <dc:title>artifact-hex</dc:title>
      </cc:Work>
    </rdf:RDF>
  </metadata>
  <sodipodi:namedview
     pagecolor="#ffffff"
     bordercolor="#666666"
     borderopacity="1"
     objecttolerance="10"
     gridtolerance="10"
     guidetolerance="10"
     inkscape:pageopacity="0"
     inkscape:pageshadow="2"
     inkscape:window-width="1920"
     inkscape:window-height="1017"
     id="namedview3345"
     showgrid="false"
     inkscape:zoom="38.545455"
     inkscape:cx="6.1733491"
     inkscape:cy="11"
     inkscape:window-x="1912"
     inkscape:window-y="-8"
     inkscape:window-maximized="1"
     inkscape:current-layer="layer2" />
  <defs
     id="defs3337">
    <style
       id="style3339">.cls-1{fill:#189692;}</style>
  </defs>
  <title
     id="title3341">artifact-hex</title>
  <polygon
     class="cls-1"
     points="0 5.6 10 0 20 5.6 20 16.4 10 22 0 16.4 0 5.6"
     id="polygon3343" />
  <g
     inkscape:groupmode="layer"
     id="layer1"
     inkscape:label="Layer 1" />
  <g
     inkscape:groupmode="layer"
     id="layer2"
     inkscape:label="Layer 2">
    <path
       style=""
       id="path3352"
       d="m 10.651385,8.7199294 3.582622,0 -3.582622,-4.1801296 0,4.1801296 m -4.5596986,-5.3201649 5.2110846,0 3.908314,4.5601414 0,9.1202831 a 1.3027712,1.5200472 0 0 1 -1.302771,1.520046 l -7.8166275,0 c -0.723038,0 -1.3027712,-0.684021 -1.3027712,-1.520046 l 0,-12.1603774 c 0,-0.8436261 0.5797331,-1.5200471 1.3027712,-1.5200471 m 5.8624705,12.1603775 0,-1.520047 -5.8624705,0 0,1.520047 5.8624705,0 m 1.954157,-3.040094 0,-1.520047 -7.8166276,0 0,1.520047 7.8166276,0 z"
       inkscape:connector-curvature="0" />
    <path
       style="fill:#803134;stroke:#803134;stroke-width:0.0259434"
       d="m 6.0955189,14.803302 0,-0.752359 2.918632,0 2.9186321,0 0,0.752359 0,0.752358 -2.9186321,0 -2.918632,0 0,-0.752358 z"
       id="path4175"
       inkscape:connector-curvature="0" />
    <path
       style="fill:#803134;stroke:#803134;stroke-width:0.0259434"
       d="m 6.0955189,11.767925 0,-0.752359 3.9044811,0 3.904481,0 0,0.752359 0,0.752358 -3.904481,0 -3.9044811,0 0,-0.752358 z"
       id="path4177"
       inkscape:connector-curvature="0" />
    <path
       style="fill:#803134;stroke:#803134;stroke-width:0.0259434"
       d="m 10.661557,6.6385445 c 0,-1.7473238 0.0055,-2.0621677 0.03537,-2.0300708 0.08561,0.091956 3.458181,4.0366121 3.476062,4.0657008 0.01587,0.025821 -0.339864,0.032429 -1.745746,0.032429 l -1.765682,0 0,-2.0680593 z"
       id="path4179"
       inkscape:connector-curvature="0" />
    <path
       style="fill:#803134;stroke:#803134;stroke-width:0.0259434"
       d="m 5.0047244,19.189167 -4.99293195,-2.796088 0,-5.393092 0,-5.3930916 4.99397795,-2.796645 C 9.303694,0.40339833 10.006998,0.01752571 10.051761,0.04173081 c 0.02861,0.01546883 2.27601,1.27384039 4.99423,2.79638099 l 4.942217,2.7682561 0,5.3938581 0,5.393859 -4.903302,2.7473 c -2.696816,1.511016 -4.944691,2.769029 -4.995276,2.795586 l -0.091974,0.04828 -4.9929319,-2.796088 z m 9.1102486,-0.598266 c 0.46365,-0.08653 0.85289,-0.470482 1.038742,-1.024627 l 0.06091,-0.181604 0.007,-4.710315 0.007,-4.7103148 -1.96106,-2.2879164 -1.96106,-2.2879163 -2.6560625,0 c -1.8552444,0 -2.6975132,0.00873 -2.7935421,0.028951 C 5.6209011,3.4668565 5.4479385,3.5675552 5.2393264,3.7767101 5.0285124,3.9880728 4.9116621,4.1898574 4.8309249,4.4819637 4.7881699,4.6366522 4.7854589,5.0255038 4.7854589,11.002594 l 0,6.356132 0.06073,0.194576 c 0.089893,0.28801 0.2044522,0.485122 0.3932791,0.676679 0.1804851,0.183096 0.4145687,0.31788 0.6226415,0.358516 0.1682006,0.03285 8.0774725,0.03515 8.2529445,0.0024 l 0,-10e-7 z"
       id="path4181"
       inkscape:connector-curvature="0" />
    <path
       style="fill:#ffffff;stroke:#803134;stroke-width:0.0259434"
       d="M 6.134434,18.566778 C 5.8037874,18.553438 5.7577425,18.545498 5.6208172,18.478268 5.4312101,18.385168 5.1823325,18.15687 5.0530525,17.957461 4.9982735,17.872961 4.9214743,17.709523 4.8823875,17.594253 l -0.071067,-0.209581 0.00193,-6.369104 c 0.00176,-5.8300765 0.00555,-6.3827708 0.044696,-6.5305929 0.066699,-0.2518455 0.1854407,-0.4588093 0.3818821,-0.665611 0.2370796,-0.2495832 0.4179761,-0.3470311 0.7055992,-0.380102 0.1220294,-0.014031 1.325723,-0.024801 2.784417,-0.024912 l 2.5694642,-1.969e-4 1.951433,2.2765331 1.951433,2.276533 -0.0067,4.7216977 c -0.0065,4.51521 -0.0088,4.727371 -0.05459,4.851415 -0.112367,0.304651 -0.212322,0.468104 -0.405976,0.663879 -0.274507,0.277513 -0.413749,0.340709 -0.803247,0.364555 -0.349743,0.02141 -7.2609377,0.01965 -7.7971769,-0.002 l 0,-1e-6 z m 5.824292,-3.763476 0,-0.778302 -2.9445751,0 -2.9445754,0 0,0.778302 0,0.778302 2.9445754,0 2.9445751,0 0,-0.778302 z m 1.971699,-3.035377 0,-0.778302 -3.930425,0 -3.9304245,0 0,0.778302 0,0.778301 3.9304245,0 3.930425,0 0,-0.778301 z M 14.224964,8.7001179 C 14.190293,8.6434586 10.662845,4.529717 10.648932,4.529717 c -0.0073,0 -0.01332,0.9456368 -0.01332,2.1014151 l 0,2.1014151 1.804597,0 c 1.436966,0 1.800555,-0.00661 1.784754,-0.032429 z"
       id="path4183"
       inkscape:connector-curvature="0" />
  </g>
</svg>
