<?xml version="1.0" encoding="utf-8"?>
<!-- Generator: Adobe Illustrator 16.0.0, SVG Export Plug-In . SVG Version: 6.00 Build 0)  -->
<!DOCTYPE svg PUBLIC "-//W3C//DTD SVG 1.1//EN" "http://www.w3.org/Graphics/SVG/1.1/DTD/svg11.dtd">
<svg version="1.1" id="Layer_1" xmlns="http://www.w3.org/2000/svg" xmlns:xlink="http://www.w3.org/1999/xlink" x="0px" y="0px"
	 width="234.663px" height="242.656px" viewBox="0 0 234.663 242.656" enable-background="new 0 0 234.663 242.656"
	 xml:space="preserve">
<path fill-rule="evenodd" clip-rule="evenodd" fill="#128784" stroke="#128784" d="M37.859,202.734
	c-2.528,0.103-3.297-1.393-3.914-3.136c-4.359-12.325-8.731-24.645-13.097-36.966c-1.727-4.872-3.448-9.746-5.171-14.619
	c-1.271-3.592-0.814-4.819,2.41-6.202c27.634-11.858,55.272-23.708,82.911-35.557c32.592-13.974,65.184-27.944,97.774-41.917
	c3.081-1.321,4.354-0.644,5.595,2.859c6.013,16.981,12.044,33.953,18.066,50.929c1.405,3.961,0.926,5.224-2.573,6.724
	c-59.774,25.622-119.549,51.243-179.326,76.858C39.499,202.151,38.436,202.515,37.859,202.734z M216.003,119.109
	c-0.261-0.83-0.402-1.344-0.58-1.844c-5.137-14.468-10.311-28.919-15.37-43.419c-0.681-1.949-1.38-2.143-3.045-1.424
	c-20.771,8.972-41.568,17.871-62.36,26.785c-36.632,15.706-73.264,31.409-109.895,47.116c-0.814,0.35-1.61,0.751-2.558,1.194
	c5.658,15.929,11.216,31.575,16.851,47.439C98.151,169.623,156.988,144.403,216.003,119.109z"/>
<path fill-rule="evenodd" clip-rule="evenodd" fill="#128784" d="M111.481,90.069c-0.216,1.107-0.108,2.207-0.607,2.739
	c-0.841,0.897-2.063,1.967-3.13,1.972c-1.078,0.005-2.318-1.042-3.186-1.923c-0.529-0.538-0.506-1.631-0.702-2.481
	c-0.767-3.31-1.454-6.563-3.552-9.47c-2.154-2.984-2.467-6.61-2.243-10.285c0.054-0.884-0.477-2.229-1.176-2.671
	c-18.529-11.73-37.117-23.371-55.697-35.022c-0.322-0.202-0.681-0.346-1.491-0.753c0,1.203,0,2.101,0,2.998
	c0.003,26.165,0.007,52.33,0.009,78.495c0,0.636,0.036,1.277-0.037,1.906c-0.248,2.157-1.879,3.644-3.796,3.508
	c-1.869-0.132-3.204-1.572-3.218-3.747c-0.049-7.874-0.036-15.747-0.036-23.62c0-20.995,0.006-41.991,0.008-62.986
	c0-3.968-0.018-7.936-0.01-11.904c0.008-3.651,1.157-4.771,4.898-4.772c22.109-0.004,44.218-0.004,66.326-0.003
	c29.744,0.002,59.487,0.006,89.231,0.011c5.167,0,5.91,0.943,5.867,6.173c-0.098,11.764-0.033,23.528-0.043,35.292
	c0,0.794-0.005,1.594-0.099,2.38c-0.223,1.876-1.485,2.857-3.203,2.967c-1.729,0.111-3.092-0.763-3.543-2.561
	c-0.209-0.833-0.232-1.728-0.235-2.595c-0.018-6.441-0.006-12.883-0.017-19.325c0-0.621-0.081-1.241-0.151-2.245
	c-0.957,0.53-1.7,0.905-2.407,1.34c-18.08,11.1-36.152,22.212-54.239,33.3c-1.287,0.789-2.064,1.437-1.77,3.315
	c2.005,12.839-10.867,22.365-20.295,20.063C112.491,90.055,112.008,90.099,111.481,90.069z M101.355,62.263
	c0.401-0.347,0.665-0.522,0.863-0.753c6.923-8.103,18.408-9.2,26.323-0.717c1.018,1.09,1.728,0.591,2.648,0.025
	c19.688-12.108,39.364-24.234,59.107-36.252c1.969-1.198,1.661-2.819,1.33-4.301c-0.125-0.558-1.841-1.077-2.832-1.078
	c-48.73-0.052-97.461-0.046-146.192-0.038c-0.915,0-1.828,0.113-2.956,0.188c0.308,2.099-0.637,3.958,1.74,5.429
	c17.426,10.786,34.756,21.723,52.119,32.61C96.118,59.011,98.737,60.632,101.355,62.263z M126.386,72.735
	c0.031-6.372-4.167-10.697-10.459-10.773c-6.405-0.079-10.796,4.251-10.812,10.662c-0.017,6.365,4.148,10.662,10.458,10.79
	C121.943,83.542,126.353,79.188,126.386,72.735z"/>
<path fill-rule="evenodd" clip-rule="evenodd" fill="#128784" d="M39.702,219.56c50.853,0,101.318,0,152.105,0
	c0-1.147,0-2.154,0-3.161c0-21.79-0.004-43.581,0.006-65.371c0.002-0.947,0-1.926,0.222-2.836c0.462-1.887,1.778-2.775,3.709-2.606
	c1.834,0.161,2.947,1.227,3.059,3.058c0.136,2.22,0.114,4.45,0.114,6.676c0.007,22.108,0.004,44.217,0.004,66.326
	c-0.001,4.211-0.904,5.164-4.975,5.164c-51.931-0.003-103.861-0.01-155.792-0.019c-4.853-0.002-5.521-0.676-5.524-5.493
	c-0.002-3.817-0.028-7.636,0.016-11.452c0.029-2.467,1.406-3.984,3.47-3.977c2.013,0.008,3.526,1.617,3.572,3.981
	C39.748,213.013,39.702,216.179,39.702,219.56z"/>
<path fill-rule="evenodd" clip-rule="evenodd" fill="#128784" d="M133.483,182.896c0.037,9.338-8.271,17.818-17.563,17.921
	c-8.988,0.101-17.61-8.043-17.853-16.86c-0.075-2.723,1.054-4.297,3.193-4.452c2.207-0.162,3.697,1.443,3.861,4.156
	c0.29,4.796,2.834,8.285,6.948,9.53c4.836,1.464,9.864-0.009,12.44-3.642c2.513-3.545,2.536-8.914,0.052-12.575
	c-0.223-0.329-0.486-0.633-0.689-0.972c-1.058-1.775-0.719-3.765,0.819-4.885c1.582-1.151,3.495-0.925,4.862,0.763
	C132.145,175.078,133.399,178.788,133.483,182.896z"/>
<path fill-rule="evenodd" clip-rule="evenodd" fill="#128784" d="M115.792,179.574c1.803,0.016,3.271,1.514,3.303,3.371
	c0.035,1.956-1.5,3.552-3.39,3.526c-1.795-0.023-3.277-1.532-3.307-3.366C112.366,181.154,113.901,179.559,115.792,179.574z"/>
<path fill-rule="evenodd" clip-rule="evenodd" fill="#128784" d="M119.114,72.713c-0.01,1.817-1.5,3.379-3.275,3.433
	c-1.871,0.057-3.451-1.547-3.441-3.493c0.009-1.881,1.419-3.352,3.256-3.398C117.583,69.207,119.125,70.749,119.114,72.713z"/>
<g>
	
		<text transform="matrix(0.7603 -0.3188 0.3866 0.9222 59.9912 167.4658)" fill="#128784" stroke="#128784" stroke-width="2" font-family="'Roboto-Regular'" font-size="22.9106">NO CLASSIFIED</text>
</g>
</svg>
